#N canvas 971 0 933 982 10;
#X obj 205 497 expr~ $v1 > $v2;
#X obj 119 403 *~ 0.9;
#X obj 304 468 *~ 0.9;
#X obj 203 316 *~ 0.5;
#X obj 183 367 phasor~ 440;
#X obj 120 373 osc~ 220;
#X obj 454 920 dac~ 1 2;
#X obj 454 877 *~ 0.1;
#X obj 610 517 * 20;
#X obj 610 540 + 200;
#X obj 610 660 * 10;
#X obj 454 744 hip~;
#X obj 454 766 hip~;
#X obj 454 788 hip~;
#X obj 454 809 hip~;
#X obj 610 587 lop~ 4;
#X obj 610 727 line;
#X obj 610 682 + 50;
#X msg 610 704 \$1 200;
#X obj 454 618 vcf~ 4;
#X obj 610 494 ctlin 5 0;
#X obj 610 638 ctlin 6 0;
#X obj 487 855 * 0.1;
#X text 683 637 <<< cc 6 controls high pass centre frequency;
#X text 683 494 <<< cc 5 controls resonant low pass centre frequency
;
#X obj 487 833 r gate;
#X obj 610 564 sig~ 500;
#X obj 148 252 mtof;
#X obj 148 192 mono;
#X text 211 193 <<< abstraction for monophonic voice stealing;
#X obj 169 223 s gate;
#X obj 148 148 notein 1;
#X obj 219 269 ctlin 4 0;
#X connect 0 0 19 0;
#X connect 1 0 0 0;
#X connect 2 0 0 1;
#X connect 3 0 4 0;
#X connect 4 0 2 0;
#X connect 5 0 1 0;
#X connect 7 0 6 1;
#X connect 7 0 6 0;
#X connect 8 0 9 0;
#X connect 9 0 26 0;
#X connect 10 0 17 0;
#X connect 11 0 12 0;
#X connect 12 0 13 0;
#X connect 13 0 14 0;
#X connect 14 0 7 0;
#X connect 15 0 19 1;
#X connect 16 0 11 1;
#X connect 16 0 12 1;
#X connect 16 0 13 1;
#X connect 16 0 14 1;
#X connect 17 0 18 0;
#X connect 18 0 16 0;
#X connect 19 0 11 0;
#X connect 20 0 8 0;
#X connect 21 0 10 0;
#X connect 22 0 7 1;
#X connect 25 0 22 0;
#X connect 26 0 15 0;
#X connect 27 0 5 0;
#X connect 28 0 27 0;
#X connect 28 1 30 0;
#X connect 31 0 28 0;
#X connect 31 1 28 1;
#X connect 32 0 3 0;
